<svg width="18" height="18" viewBox="0 0 18 18" fill="none" xmlns="http://www.w3.org/2000/svg">
<path fill-rule="evenodd" clip-rule="evenodd" d="M3.16699 0.666748H14.8337C16.2503 0.666748 17.3337 1.75008 17.3337 3.16675V11.5001C17.3337 12.9167 16.2503 14.0001 14.8337 14.0001H5.16699L2.08366 17.0834C1.91699 17.2501 1.75033 17.3334 1.50033 17.3334C1.41699 17.3334 1.25033 17.3334 1.16699 17.2501C0.833659 17.1667 0.666992 16.8334 0.666992 16.5001V3.16675C0.666992 1.75008 1.75033 0.666748 3.16699 0.666748ZM14.8336 12.3334C15.3336 12.3334 15.667 12.0001 15.667 11.5001V3.16676C15.667 2.66676 15.3336 2.33343 14.8336 2.33343H3.16698C2.66698 2.33343 2.33364 2.66676 2.33364 3.16676V14.5001L4.25031 12.5834C4.41698 12.4168 4.58364 12.3334 4.83364 12.3334H14.8336Z" fill="#6E6B7B"/>
</svg>
