<svg width="20" height="20" viewBox="0 0 20 20" fill="none" xmlns="http://www.w3.org/2000/svg">
<path fill-rule="evenodd" clip-rule="evenodd" d="M19.1663 14.1666C19.1663 14.6666 18.833 14.9999 18.333 14.9999H1.66634C1.16634 14.9999 0.833008 14.6666 0.833008 14.1666C0.833008 13.6666 1.16634 13.3333 1.66634 13.3333C2.58301 13.3333 3.33301 12.5833 3.33301 11.6666V7.49992C3.33301 3.83325 6.33301 0.833252 9.99967 0.833252C13.6663 0.833252 16.6663 3.83325 16.6663 7.49992V11.6666C16.6663 12.5833 17.4163 13.3333 18.333 13.3333C18.833 13.3333 19.1663 13.6666 19.1663 14.1666ZM12.1663 17.9166C11.6663 18.7499 10.833 19.1666 9.99967 19.1666C9.58301 19.1666 9.16634 19.0833 8.74967 18.8333C8.33301 18.5833 8.08301 18.3333 7.83301 17.9166C7.58301 17.4999 7.74967 16.9999 8.16634 16.7499C8.58301 16.4999 9.08301 16.6666 9.33301 17.0833C9.35824 17.1085 9.38347 17.1414 9.41101 17.1772C9.47444 17.2599 9.55014 17.3585 9.66634 17.4166C10.083 17.6666 10.583 17.4999 10.833 17.0833C11.083 16.6666 11.583 16.5833 11.9997 16.7499C12.4163 16.9166 12.4163 17.4999 12.1663 17.9166ZM14.9997 11.6666C14.9997 12.2499 15.1663 12.8333 15.4163 13.3333H4.58301C4.83301 12.8333 4.99967 12.2499 4.99967 11.6666V7.49992C4.99967 4.74992 7.24967 2.49992 9.99967 2.49992C12.7497 2.49992 14.9997 4.74992 14.9997 7.49992V11.6666Z" fill="#6E6B7B"/>
</svg>
