<svg width="182" height="24" viewBox="0 0 182 24" fill="none" xmlns="http://www.w3.org/2000/svg">
<g clip-path="url(#clip0_1729_9633)">
<path d="M181.649 7.24627C181.447 6.69336 181.113 6.19218 180.674 5.78171C180.251 5.40375 179.74 5.12487 179.184 4.96733C177.939 4.6258 176.618 4.6258 175.374 4.96733C174.821 5.12692 174.314 5.40562 173.893 5.78171C173.455 6.1929 173.122 6.69391 172.92 7.24627C172.765 7.6711 172.664 8.11211 172.62 8.55978L175.494 8.38903C175.53 8.05954 175.682 7.75119 175.925 7.51335C176.324 7.24554 176.801 7.10175 177.29 7.10175C177.779 7.10175 178.256 7.24554 178.656 7.51335C178.849 7.69199 178.983 7.92025 179.041 8.17011L181.875 8.00154C181.82 7.74479 181.744 7.49233 181.649 7.24627Z" fill="#2C353A"/>
<path d="M170.084 7.55277C169.874 6.97186 169.523 6.44656 169.057 6.02034C168.598 5.61726 168.045 5.32382 167.443 5.16437C166.735 4.97838 166.003 4.88919 165.268 4.89948H161.292V9.23625L164.149 9.06768V7.30539H165.143C166.041 7.30539 166.679 7.52431 167.06 7.96214C167.273 8.229 167.421 8.538 167.491 8.86628L170.379 8.69552C170.321 8.3062 170.222 7.92336 170.084 7.55277Z" fill="#2C353A"/>
<path d="M156.135 4.9082H152.47L151.184 9.83605L153.834 9.67843L154.251 7.97525H154.292L154.694 9.62808L157.295 9.47265L156.135 4.9082Z" fill="#2C353A"/>
<path d="M147.687 4.9082H139.403V7.30536H144.477L142.669 10.3418L145.928 10.1469L147.687 7.18933V4.9082Z" fill="#2C353A"/>
<path d="M129.795 11.1036V4.9082H126.938V11.2743L129.795 11.1036Z" fill="#2C353A"/>
<path d="M136.691 4.9082H133.833V10.865L136.691 10.6964V4.9082Z" fill="#2C353A"/>
<path d="M124.472 9.15522C124.472 7.80376 124.058 6.75806 123.229 6.01812C122.4 5.27817 121.123 4.9082 119.398 4.9082H115.247V11.9661L123.907 11.4539C123.907 11.4385 123.928 11.4276 123.935 11.4145C124.311 10.7161 124.496 9.93915 124.472 9.15522ZM121.08 10.6198C120.662 10.9468 120.13 11.1119 119.59 11.0817H118.121V7.14117H119.59C120.13 7.11039 120.662 7.27463 121.08 7.6009C121.439 7.9103 121.619 8.41235 121.619 9.10705C121.619 9.80175 121.439 10.306 121.08 10.6198Z" fill="#2C353A"/>
<path d="M106.85 7.52206C107.25 7.25437 107.727 7.11066 108.217 7.11066C108.706 7.11066 109.183 7.25437 109.583 7.52206C109.915 7.7979 110.081 8.32768 110.081 9.11579V9.50765H112.939V9.46824C112.959 8.71367 112.84 7.96156 112.586 7.24623C112.387 6.69489 112.058 6.19397 111.624 5.78166C111.2 5.40412 110.689 5.12533 110.132 4.96729C108.888 4.62581 107.568 4.62581 106.324 4.96729C105.767 5.12533 105.256 5.40412 104.832 5.78166C104.394 6.19285 104.061 6.69386 103.859 7.24623C103.605 7.96156 103.486 8.71367 103.506 9.46824V12.6645L106.364 12.4937V9.11579C106.352 8.31892 106.518 7.7979 106.85 7.52206Z" fill="#2C353A"/>
<path d="M101.426 12.7871V9.46829C101.445 8.71379 101.326 7.96187 101.073 7.24627C100.869 6.69329 100.533 6.19222 100.093 5.78171C99.6687 5.40417 99.1579 5.12538 98.6007 4.96733C97.3562 4.6258 96.0353 4.6258 94.7908 4.96733C94.2343 5.12539 93.7242 5.4042 93.3009 5.78171C92.8614 6.19218 92.5276 6.69336 92.3254 7.24627C92.0735 7.96201 91.9549 8.71392 91.9748 9.46829V13.3541L94.8323 13.1855V9.11583C94.8323 8.32773 94.9983 7.80233 95.3281 7.52211C95.7283 7.25423 96.206 7.11043 96.6957 7.11043C97.1854 7.11043 97.6632 7.25423 98.0634 7.52211C98.3932 7.79795 98.5592 8.32773 98.5592 9.11583V12.9557L101.426 12.7871Z" fill="#FA6900"/>
<path d="M83.3259 13.8596V9.11569C83.3259 8.32758 83.492 7.80218 83.8217 7.52196C84.2084 7.22909 84.6956 7.08248 85.1894 7.1104C85.4274 7.10165 85.6644 7.14395 85.8828 7.23415C86.1012 7.32436 86.2954 7.46015 86.4509 7.63142C86.7692 7.97731 86.9283 8.60926 86.9283 9.52725H89.7858C89.7381 7.90288 89.3245 6.69737 88.545 5.91073C87.7655 5.12408 86.6469 4.72711 85.1894 4.71981C84.5444 4.71345 83.9021 4.7998 83.2844 4.97594C82.7272 5.13399 82.2164 5.41278 81.7922 5.79032C81.3542 6.20151 81.0212 6.70252 80.819 7.25488C80.5651 7.97022 80.4457 8.72233 80.4661 9.4769V14.0304L83.3259 13.8596Z" fill="#FA6900"/>
<path d="M89.7862 11.8259H84.9199V13.7655L89.7862 13.4766V11.8259Z" fill="#FA6900"/>
<path d="M78.3973 14.1531V9.46829C78.4177 8.71372 78.2982 7.96161 78.0444 7.24627C77.8421 6.69391 77.5092 6.1929 77.0712 5.78171C76.647 5.40417 76.1361 5.12538 75.579 4.96733C74.3345 4.6258 73.0135 4.6258 71.769 4.96733C71.2126 5.12539 70.7025 5.4042 70.2792 5.78171C69.8404 6.19235 69.5073 6.69353 69.3059 7.24627C69.0536 7.96187 68.9358 8.71398 68.9577 9.46829V14.5406C68.9577 14.5997 68.9577 14.6545 68.9577 14.7114L71.8082 14.5428V9.11583C71.8082 8.32773 71.9743 7.80232 72.3064 7.52211C72.7062 7.25441 73.1835 7.11071 73.6729 7.11071C74.1622 7.11071 74.6395 7.25441 75.0393 7.52211C75.3714 7.79795 75.5375 8.32773 75.5375 9.11583V14.3217L78.3973 14.1531Z" fill="#FA6900"/>
<path d="M62.8643 15.0726V12.9666H66.469V10.5694H62.8643V7.30536H67.463V4.9082H60.0068V15.2433L62.8643 15.0726Z" fill="#FA6900"/>
<path d="M173.893 18.225C174.313 18.6041 174.82 18.8852 175.374 19.046C176.619 19.3875 177.94 19.3875 179.184 19.046C179.741 18.8885 180.252 18.6088 180.674 18.2294C181.114 17.8197 181.448 17.3183 181.649 16.7648C181.901 16.0499 182.02 15.2987 182 14.545V9.4683C182 9.40262 182 9.34352 182 9.28003L179.147 9.4486V14.8865C179.147 15.6732 178.981 16.2044 178.649 16.4802C178.25 16.7493 177.773 16.8938 177.284 16.8938C176.794 16.8938 176.317 16.7493 175.918 16.4802C175.583 16.2088 175.416 15.6775 175.416 14.8865V9.6697L172.558 9.83827V14.5406C172.537 15.2944 172.655 16.0458 172.909 16.7605C173.113 17.3144 173.45 17.8157 173.893 18.225Z" fill="#2C353A"/>
<path d="M167.436 18.8269C168.038 18.6674 168.592 18.374 169.05 17.9709C169.516 17.5447 169.868 17.0194 170.077 16.4385C170.337 15.7069 170.474 14.9406 170.48 14.1683V9.96069L167.623 10.1314V13.8706C167.623 14.9316 167.405 15.6694 166.97 16.0838C166.535 16.4983 165.92 16.7041 165.125 16.7012H164.131V10.3372L161.292 10.508V19.1005H165.268C166.001 19.1073 166.731 19.0152 167.436 18.8269Z" fill="#2C353A"/>
<path d="M152.326 16.1124H156.281L157.005 19.1007H159.74L157.612 10.7249L154.996 10.8803L155.681 13.7153H152.844L153.518 10.9679L150.847 11.1255L148.765 19.1007H151.518L152.326 16.1124Z" fill="#2C353A"/>
<path d="M147.809 16.7014H142.035L145.146 11.4626L141.887 11.6575L138.824 16.8021V19.1007H147.809V16.7014Z" fill="#2C353A"/>
<path d="M128.261 18.2446C128.707 18.6161 129.234 18.8897 129.804 19.0459C131.112 19.3874 132.493 19.3874 133.801 19.0459C134.371 18.8915 134.898 18.6194 135.344 18.249C135.786 17.8727 136.127 17.4013 136.338 16.8742C136.589 16.2302 136.709 15.5467 136.691 14.8602V11.9639L133.833 12.1346V14.8361C133.833 16.2109 133.156 16.899 131.801 16.9005C131.109 16.9005 130.588 16.7253 130.27 16.3773C129.952 16.0292 129.795 15.5169 129.795 14.8448V12.3754L126.937 12.544V14.8558C126.919 15.5414 127.035 16.2242 127.279 16.8698C127.485 17.3966 127.822 17.8682 128.261 18.2446Z" fill="#2C353A"/>
<path d="M118.116 13.3212H119.481L121.967 19.1006H125.03L122.237 12.822L115.256 13.2358V19.1006H118.116V13.3212Z" fill="#2C353A"/>
<path d="M104.821 18.225C105.246 18.6064 105.759 18.8876 106.32 19.0459C107.563 19.3874 108.884 19.3874 110.127 19.0459C110.687 18.8873 111.2 18.6061 111.624 18.225C112.063 17.8145 112.396 17.3133 112.597 16.7604C112.851 16.0459 112.971 15.2945 112.95 14.5406V13.9495H110.081V14.8865C110.081 15.6731 109.915 16.2044 109.583 16.4802C109.184 16.7494 108.706 16.8941 108.217 16.8941C107.727 16.8941 107.249 16.7494 106.85 16.4802C106.518 16.2044 106.352 15.6731 106.352 14.8865V13.7634L103.494 13.9342V14.5406C103.474 15.2945 103.593 16.0459 103.847 16.7604C104.048 17.3133 104.382 17.8145 104.821 18.225Z" fill="#2C353A"/>
<path d="M91.9834 14.6149C91.9702 15.3436 92.088 16.0691 92.3317 16.7603C92.5327 17.3137 92.8667 17.8151 93.3072 18.2248C93.7267 18.6042 94.2337 18.8853 94.7879 19.0458C96.0324 19.3873 97.3533 19.3873 98.5978 19.0458C99.1568 18.8869 99.6687 18.6057 100.092 18.2248C100.531 17.8144 100.864 17.3132 101.066 16.7603C101.318 16.0455 101.438 15.2943 101.418 14.5404V14.0566L98.5586 14.2252V14.882C98.5586 15.6686 98.3933 16.1999 98.0628 16.4757C97.6631 16.7448 97.1852 16.8893 96.6951 16.8893C96.2051 16.8893 95.7272 16.7448 95.3275 16.4757C94.9985 16.1999 94.8332 15.6686 94.8317 14.882V14.4485L91.9834 14.6149Z" fill="#FA6900"/>
<path d="M80.8192 16.7604C81.0203 17.3133 81.3534 17.8145 81.7924 18.225C82.2154 18.6055 82.7264 18.8867 83.2846 19.0459C83.9023 19.222 84.5446 19.3084 85.1896 19.302C85.6995 19.3089 86.2013 19.18 86.6379 18.9299C87.0965 18.6555 87.5086 18.3167 87.8602 17.925L88.2961 19.105H89.786V14.7463L86.9285 14.9149V14.9324C86.9632 15.4511 86.7994 15.9642 86.4672 16.3773C86.3109 16.5506 86.1149 16.6877 85.8943 16.7784C85.6738 16.8691 85.4343 16.9108 85.1942 16.9005C84.7003 16.9265 84.2135 16.7793 83.8266 16.4867C83.5313 16.2415 83.3768 15.7796 83.3422 15.1294L80.5078 15.298C80.5429 15.7964 80.6476 16.2882 80.8192 16.7604Z" fill="#FA6900"/>
<path d="M69.306 16.7605C69.5063 17.3137 69.8395 17.8151 70.2793 18.225C70.7014 18.6056 71.2117 18.8867 71.7691 19.046C73.0136 19.3875 74.3346 19.3875 75.5791 19.046C76.1368 18.888 76.6478 18.6084 77.0712 18.2294C77.5103 17.819 77.8433 17.3177 78.0445 16.7648C78.2025 16.3331 78.3039 15.8846 78.3466 15.4294L75.4753 15.6002C75.4398 15.9349 75.2871 16.2486 75.0417 16.4912C74.6425 16.7604 74.1649 16.9051 73.6752 16.9051C73.1855 16.9051 72.708 16.7604 72.3088 16.4912C72.1109 16.3057 71.9753 16.0688 71.919 15.8104L69.0869 15.9811C69.1375 16.2461 69.2108 16.5068 69.306 16.7605Z" fill="#FA6900"/>
<path d="M62.8643 16.3423L60.0068 16.513V19.1007H62.8643V16.3423Z" fill="#FA6900"/>
<path d="M12.6426 5.81445C12.7164 5.81445 12.7671 5.8451 12.7648 5.91297V9.87977C12.7652 9.89509 12.7621 9.91032 12.7559 9.92446C12.7497 9.93861 12.7404 9.95136 12.7287 9.96188C12.7169 9.97241 12.703 9.98048 12.6878 9.98556C12.6725 9.99065 12.6563 9.99264 12.6402 9.99141H11.9922V5.81445H12.6426Z" fill="#FA6900"/>
<path d="M4.05675 9.43328V6.36842C4.05683 6.31836 4.07292 6.26951 4.10287 6.22831H4.05675C1.6513 6.22175 0 6.97701 0 7.90304C0 8.82906 1.6513 9.58433 4.05675 9.58433H4.10748C4.07472 9.54008 4.05701 9.48736 4.05675 9.43328Z" fill="#FA6900"/>
<path d="M10.6576 6.00265C10.9851 6.00265 11.2134 6.134 11.2134 6.44049V9.28642C11.2163 9.35545 11.2037 9.42426 11.1764 9.48831C11.1492 9.55236 11.1079 9.6102 11.0554 9.658C11.0029 9.70579 10.9402 9.74247 10.8717 9.76559C10.8031 9.78871 10.7301 9.79775 10.6576 9.79212H5.63684C5.30935 9.79212 4.83887 9.73083 4.83887 9.41996V6.35511C4.83887 6.04644 5.30012 5.9939 5.63684 5.9939L10.6576 6.00265Z" fill="#FA6900"/>
<path d="M39.8411 18.1878C39.7696 18.1878 39.7189 18.1594 39.7189 18.0893V14.1203C39.7182 14.1051 39.7209 14.0899 39.7268 14.0758C39.7328 14.0616 39.7418 14.0488 39.7534 14.0383C39.765 14.0277 39.7788 14.0196 39.7939 14.0145C39.809 14.0094 39.8251 14.0074 39.8411 14.0087H40.4961V18.1878H39.8411Z" fill="#FA6900"/>
<path d="M48.4319 14.569V17.6339C48.4319 17.6839 48.4158 17.7328 48.3858 17.774H48.4319C50.8351 17.774 52.4887 17.0209 52.4864 16.0949C52.4841 15.1688 50.8351 14.4136 48.4319 14.4136H48.3789C48.4138 14.4586 48.4324 14.5131 48.4319 14.569Z" fill="#FA6900"/>
<path d="M41.8266 17.9994C41.4991 17.9994 41.2708 17.868 41.2708 17.5615V14.7156C41.2683 14.6467 41.2812 14.5782 41.3085 14.5144C41.3359 14.4506 41.3772 14.393 41.4297 14.3455C41.4822 14.2979 41.5447 14.2614 41.6131 14.2384C41.6815 14.2155 41.7543 14.2065 41.8266 14.2121H46.8497C47.1749 14.2121 47.6454 14.2756 47.6454 14.5842V17.6491C47.6454 17.9578 47.1841 18.0103 46.8497 18.0103L41.8266 17.9994Z" fill="#FA6900"/>
<path d="M32.4912 9.74624H38.8889V6.06184H32.4912V0H28.5982V6.06184H23.8704V0H19.9866V6.06184H13.6074V9.74624H19.9958V14.256H13.6074V17.9513H19.9958V24.0109H23.8704V17.9513H28.5982V24.0109H32.482V17.9513H38.8796V14.256H32.4912V9.74624ZM23.8704 14.256V9.74624H28.5982V14.256H23.8704Z" fill="#2C353A"/>
</g>
<defs>
<clipPath id="clip0_1729_9633">
<rect width="182" height="24" fill="white"/>
</clipPath>
</defs>
</svg>
