<svg width="28" height="28" viewBox="0 0 28 28" fill="none" xmlns="http://www.w3.org/2000/svg">
<rect opacity="0.15" width="28" height="28" rx="5" fill="#2C3941"/>
<path fill-rule="evenodd" clip-rule="evenodd" d="M7.13704 20.5883C7.48018 20.7942 7.82331 20.8628 8.16645 20.8628H19.8331C20.3821 20.8628 20.8625 20.657 21.2057 20.2452C21.6174 19.9021 21.8233 19.353 21.8233 18.804C21.8233 18.4609 21.7547 18.1177 21.5488 17.7746L15.7841 8.09814C15.441 7.61775 15.0292 7.27461 14.4802 7.13735C13.9312 7.0001 13.3821 7.06873 12.9017 7.34324C12.6272 7.48049 12.3527 7.755 12.2155 8.02951L6.38214 17.7746C5.83312 18.7354 6.17625 20.0393 7.13704 20.5883ZM7.61742 18.4609L13.3821 8.78441C13.4508 8.64716 13.5194 8.57853 13.6566 8.5099C13.9998 8.37265 14.4115 8.44128 14.6174 8.78441L20.3821 18.4609C20.4508 18.5981 20.4508 18.6668 20.4508 18.804C20.4508 19.0099 20.3821 19.1472 20.2449 19.2844C20.1076 19.4217 19.9704 19.4903 19.7645 19.4903H8.16644C8.09781 19.4903 7.96055 19.4903 7.89193 19.4217C7.54879 19.2158 7.41153 18.804 7.61742 18.4609ZM14.686 14.6864V11.9413C14.686 11.5295 14.4115 11.255 13.9998 11.255C13.588 11.255 13.3135 11.5295 13.3135 11.9413V14.6864C13.3135 15.0981 13.588 15.3726 13.9998 15.3726C14.4115 15.3726 14.686 15.0981 14.686 14.6864ZM14.6861 17.4315C14.6861 17.6373 14.6174 17.7746 14.4802 17.9118C14.3429 18.0491 14.2057 18.1177 13.9312 18.1177C13.7253 18.1177 13.588 18.0491 13.4508 17.9118C13.3135 17.7746 13.2449 17.6373 13.2449 17.4315C13.2449 17.3511 13.2684 17.2942 13.2879 17.2471C13.3017 17.2138 13.3135 17.1854 13.3135 17.1569C13.3135 17.0883 13.3821 17.0197 13.4508 16.9511C13.5194 16.8824 13.588 16.8138 13.6567 16.8138C13.7939 16.7452 13.9312 16.7452 14.0684 16.7452C14.1079 16.7846 14.1247 16.8014 14.1448 16.8085C14.1597 16.8138 14.1765 16.8138 14.2057 16.8138C14.24 16.8138 14.2571 16.831 14.2743 16.8481C14.2915 16.8653 14.3086 16.8824 14.3429 16.8824C14.4116 16.8824 14.4802 16.9511 14.4802 16.9511C14.5488 17.0197 14.6174 17.0883 14.6174 17.1569C14.6861 17.2256 14.6861 17.3628 14.6861 17.4315Z" fill="#2C3941"/>
</svg>
