<svg width="28" height="28" viewBox="0 0 28 28" fill="none" xmlns="http://www.w3.org/2000/svg">
<rect width="28" height="28" rx="5" fill="#F8F8F8"/>
<path fill-rule="evenodd" clip-rule="evenodd" d="M10.5683 10.5686C10.5683 8.64701 12.0781 7.13721 13.9997 7.13721C15.9213 7.13721 17.4311 8.64701 17.4311 10.5686C17.4311 12.4901 15.9213 14 13.9997 14C12.0781 14 10.5683 12.4901 10.5683 10.5686ZM20.1762 18.8039V20.1764C20.1762 20.5882 19.9017 20.8627 19.4899 20.8627C19.0781 20.8627 18.8036 20.5882 18.8036 20.1764V18.8039C18.8036 17.6372 17.9115 16.7451 16.7448 16.7451H11.2546C10.0879 16.7451 9.19579 17.6372 9.19579 18.8039V20.1764C9.19579 20.5882 8.92128 20.8627 8.50952 20.8627C8.09775 20.8627 7.82324 20.5882 7.82324 20.1764V18.8039C7.82324 16.8823 9.33305 15.3725 11.2546 15.3725H16.7448C18.6664 15.3725 20.1762 16.8823 20.1762 18.8039ZM13.9997 12.6274C12.833 12.6274 11.9409 11.7352 11.9409 10.5686C11.9409 9.40191 12.833 8.50975 13.9997 8.50975C15.1664 8.50975 16.0585 9.40191 16.0585 10.5686C16.0585 11.7352 15.1664 12.6274 13.9997 12.6274Z" fill="#2C3941"/>
</svg>
