<svg width="182" height="24" viewBox="0 0 182 24" fill="none" xmlns="http://www.w3.org/2000/svg">
<path d="M181.649 7.24615C181.447 6.69324 181.113 6.19206 180.674 5.78159C180.251 5.40363 179.741 5.12475 179.184 4.96721C177.94 4.62568 176.619 4.62568 175.374 4.96721C174.821 5.1268 174.314 5.4055 173.893 5.78159C173.455 6.19277 173.122 6.69379 172.92 7.24615C172.765 7.67097 172.664 8.11199 172.62 8.55966L175.494 8.3889C175.53 8.05942 175.682 7.75107 175.925 7.51323C176.325 7.24542 176.802 7.10162 177.291 7.10162C177.78 7.10162 178.257 7.24542 178.656 7.51323C178.849 7.69186 178.983 7.92013 179.041 8.16999L181.875 8.00142C181.82 7.74466 181.745 7.4922 181.649 7.24615Z" fill="#2C353A"/>
<path d="M170.083 7.55265C169.874 6.97174 169.523 6.44644 169.057 6.02022C168.598 5.61714 168.045 5.3237 167.443 5.16425C166.735 4.97826 166.002 4.88906 165.268 4.89936H161.292V9.23613L164.149 9.06756V7.30527H165.143C166.041 7.30527 166.679 7.52419 167.06 7.96202C167.273 8.22887 167.421 8.53788 167.491 8.86615L170.379 8.6954C170.321 8.30607 170.222 7.92324 170.083 7.55265Z" fill="#2C353A"/>
<path d="M156.135 4.9082H152.47L151.183 9.83605L153.833 9.67843L154.251 7.97525H154.292L154.694 9.62808L157.295 9.47265L156.135 4.9082Z" fill="#2C353A"/>
<path d="M147.687 4.9082H139.403V7.30536H144.477L142.669 10.3418L145.928 10.1469L147.687 7.18933V4.9082Z" fill="#2C353A"/>
<path d="M129.795 11.1036V4.9082H126.938V11.2743L129.795 11.1036Z" fill="#2C353A"/>
<path d="M136.691 4.9082H133.833V10.865L136.691 10.6964V4.9082Z" fill="#2C353A"/>
<path d="M124.472 9.15522C124.472 7.80376 124.058 6.75806 123.229 6.01812C122.4 5.27817 121.123 4.9082 119.398 4.9082H115.247V11.9661L123.907 11.4539C123.907 11.4385 123.928 11.4276 123.935 11.4145C124.311 10.7161 124.496 9.93915 124.472 9.15522ZM121.08 10.6198C120.662 10.9468 120.13 11.1119 119.59 11.0817H118.121V7.14117H119.59C120.13 7.11039 120.662 7.27463 121.08 7.6009C121.439 7.9103 121.619 8.41235 121.619 9.10705C121.619 9.80175 121.439 10.306 121.08 10.6198Z" fill="#2C353A"/>
<path d="M106.85 7.52206C107.25 7.25437 107.727 7.11066 108.216 7.11066C108.706 7.11066 109.183 7.25437 109.583 7.52206C109.915 7.7979 110.081 8.32768 110.081 9.11579V9.50765H112.938V9.46824C112.959 8.71367 112.839 7.96156 112.586 7.24623C112.387 6.69489 112.058 6.19397 111.624 5.78166C111.2 5.40412 110.689 5.12533 110.132 4.96729C108.888 4.62581 107.568 4.62581 106.324 4.96729C105.767 5.12533 105.256 5.40412 104.832 5.78166C104.394 6.19285 104.061 6.69386 103.859 7.24623C103.605 7.96156 103.485 8.71367 103.506 9.46824V12.6645L106.363 12.4937V9.11579C106.352 8.31892 106.518 7.7979 106.85 7.52206Z" fill="#2C353A"/>
<path d="M101.426 12.787V9.46817C101.445 8.71367 101.325 7.96175 101.073 7.24615C100.868 6.69316 100.533 6.1921 100.093 5.78159C99.6683 5.40405 99.1575 5.12526 98.6004 4.96721C97.3559 4.62568 96.0349 4.62568 94.7904 4.96721C94.2339 5.12527 93.7239 5.40408 93.3005 5.78159C92.861 6.19205 92.5272 6.69324 92.325 7.24615C92.0731 7.96189 91.9545 8.7138 91.9744 9.46817V13.354L94.8319 13.1854V9.11571C94.8319 8.32761 94.998 7.8022 95.3278 7.52199C95.728 7.25411 96.2057 7.11031 96.6954 7.11031C97.1851 7.11031 97.6628 7.25411 98.063 7.52199C98.3928 7.79782 98.5589 8.32761 98.5589 9.11571V12.9555L101.426 12.787Z" fill="#FA6900"/>
<path d="M83.3259 13.8596V9.11569C83.3259 8.32758 83.492 7.80218 83.8217 7.52196C84.2084 7.22909 84.6956 7.08248 85.1894 7.1104C85.4274 7.10165 85.6644 7.14395 85.8828 7.23415C86.1012 7.32436 86.2954 7.46015 86.4509 7.63142C86.7692 7.97731 86.9283 8.60926 86.9283 9.52725H89.7858C89.7381 7.90288 89.3245 6.69737 88.545 5.91073C87.7655 5.12408 86.6469 4.72711 85.1894 4.71981C84.5444 4.71345 83.9021 4.7998 83.2844 4.97594C82.7272 5.13399 82.2164 5.41278 81.7922 5.79032C81.3542 6.20151 81.0212 6.70252 80.819 7.25488C80.5651 7.97022 80.4457 8.72233 80.4661 9.4769V14.0304L83.3259 13.8596Z" fill="#FA6900"/>
<path d="M89.7857 11.8259H84.9194V13.7655L89.7857 13.4766V11.8259Z" fill="#FA6900"/>
<path d="M78.3974 14.153V9.46817C78.4178 8.71359 78.2984 7.96148 78.0445 7.24615C77.8423 6.69379 77.5093 6.19277 77.0713 5.78159C76.6471 5.40405 76.1363 5.12526 75.5791 4.96721C74.3346 4.62568 73.0136 4.62568 71.7691 4.96721C71.2127 5.12527 70.7026 5.40408 70.2793 5.78159C69.8405 6.19223 69.5075 6.69341 69.306 7.24615C69.0538 7.96175 68.9359 8.71385 68.9578 9.46817V14.5405C68.9578 14.5996 68.9578 14.6543 68.9578 14.7113L71.8083 14.5427V9.11571C71.8083 8.32761 71.9744 7.8022 72.3065 7.52199C72.7064 7.25429 73.1837 7.11059 73.673 7.11059C74.1623 7.11059 74.6396 7.25429 75.0394 7.52199C75.3715 7.79782 75.5376 8.32761 75.5376 9.11571V14.3216L78.3974 14.153Z" fill="#FA6900"/>
<path d="M62.8646 15.0726V12.9666H66.4693V10.5694H62.8646V7.30536H67.4633V4.9082H60.0071V15.2433L62.8646 15.0726Z" fill="#FA6900"/>
<path d="M173.893 18.2249C174.313 18.604 174.82 18.8851 175.374 19.0458C176.619 19.3874 177.94 19.3874 179.184 19.0458C179.741 18.8884 180.252 18.6087 180.674 18.2293C181.114 17.8196 181.448 17.3182 181.649 16.7647C181.901 16.0498 182.02 15.2986 182 14.5449V9.46818C182 9.4025 182 9.34339 182 9.27991L179.147 9.44847V14.8864C179.147 15.673 178.981 16.2043 178.649 16.4801C178.25 16.7492 177.773 16.8937 177.284 16.8937C176.794 16.8937 176.317 16.7492 175.918 16.4801C175.583 16.2087 175.416 15.6774 175.416 14.8864V9.66958L172.558 9.83815V14.5405C172.537 15.2942 172.655 16.0457 172.909 16.7603C173.113 17.3143 173.45 17.8156 173.893 18.2249Z" fill="#2C353A"/>
<path d="M167.436 18.827C168.038 18.6676 168.591 18.3741 169.05 17.971C169.516 17.5448 169.867 17.0195 170.076 16.4386C170.337 15.7071 170.474 14.9407 170.48 14.1684V9.96082L167.623 10.1316V13.8707C167.623 14.9317 167.405 15.6695 166.97 16.084C166.535 16.4984 165.92 16.7042 165.125 16.7013H164.131V10.3374L161.292 10.5081V19.1007H165.268C166.001 19.1075 166.73 19.0153 167.436 18.827Z" fill="#2C353A"/>
<path d="M152.325 16.1124H156.28L157.004 19.1007H159.74L157.611 10.7249L154.996 10.8803L155.681 13.7153H152.844L153.517 10.9679L150.847 11.1255L148.764 19.1007H151.518L152.325 16.1124Z" fill="#2C353A"/>
<path d="M147.809 16.7012H142.035L145.146 11.4625L141.887 11.6574L138.824 16.8019V19.1006H147.809V16.7012Z" fill="#2C353A"/>
<path d="M128.261 18.2446C128.707 18.6161 129.234 18.8897 129.804 19.0459C131.112 19.3874 132.493 19.3874 133.801 19.0459C134.371 18.8915 134.898 18.6194 135.344 18.249C135.786 17.8727 136.127 17.4013 136.338 16.8742C136.589 16.2302 136.709 15.5467 136.691 14.8602V11.9639L133.833 12.1346V14.8361C133.833 16.2109 133.156 16.899 131.802 16.9005C131.11 16.9005 130.588 16.7253 130.27 16.3773C129.952 16.0292 129.795 15.5169 129.795 14.8448V12.3754L126.938 12.544V14.8558C126.92 15.5414 127.035 16.2242 127.279 16.8698C127.485 17.3966 127.822 17.8682 128.261 18.2446Z" fill="#2C353A"/>
<path d="M118.116 13.3212H119.481L121.968 19.1006H125.03L122.237 12.822L115.256 13.2358V19.1006H118.116V13.3212Z" fill="#2C353A"/>
<path d="M104.82 18.225C105.245 18.6064 105.759 18.8876 106.32 19.0459C107.563 19.3874 108.883 19.3874 110.127 19.0459C110.687 18.8873 111.2 18.6061 111.624 18.225C112.063 17.8145 112.396 17.3133 112.597 16.7604C112.851 16.0459 112.971 15.2945 112.95 14.5406V13.9495H110.081V14.8865C110.081 15.6731 109.915 16.2044 109.583 16.4802C109.184 16.7494 108.706 16.8941 108.216 16.8941C107.727 16.8941 107.249 16.7494 106.85 16.4802C106.518 16.2044 106.352 15.6731 106.352 14.8865V13.7634L103.494 13.9342V14.5406C103.474 15.2945 103.593 16.0459 103.847 16.7604C104.048 17.3133 104.381 17.8145 104.82 18.225Z" fill="#2C353A"/>
<path d="M91.9837 14.615C91.9705 15.3437 92.0882 16.0693 92.3319 16.7604C92.533 17.3138 92.867 17.8153 93.3075 18.225C93.7269 18.6043 94.2339 18.8854 94.7881 19.0459C96.0326 19.3874 97.3536 19.3874 98.5981 19.0459C99.157 18.887 99.6689 18.6058 100.093 18.225C100.532 17.8145 100.865 17.3133 101.066 16.7604C101.319 16.0456 101.438 15.2944 101.419 14.5406V14.0568L98.5589 14.2253V14.8821C98.5589 15.6687 98.3936 16.2 98.063 16.4758C97.6633 16.7449 97.1854 16.8895 96.6954 16.8895C96.2054 16.8895 95.7275 16.7449 95.3278 16.4758C94.9987 16.2 94.8335 15.6687 94.8319 14.8821V14.4486L91.9837 14.615Z" fill="#FA6900"/>
<path d="M80.8189 16.7604C81.0201 17.3133 81.3532 17.8145 81.7922 18.225C82.2151 18.6055 82.7262 18.8867 83.2843 19.0459C83.9021 19.222 84.5443 19.3084 85.1893 19.302C85.6993 19.3089 86.201 19.18 86.6377 18.9299C87.0963 18.6555 87.5084 18.3167 87.86 17.925L88.2959 19.105H89.7857V14.7463L86.9283 14.9149V14.9324C86.963 15.4511 86.7992 15.9642 86.467 16.3773C86.3106 16.5506 86.1147 16.6877 85.8941 16.7784C85.6735 16.8691 85.4341 16.9108 85.1939 16.9005C84.7 16.9265 84.2133 16.7793 83.8263 16.4867C83.5311 16.2415 83.3766 15.7796 83.342 15.1294L80.5076 15.298C80.5427 15.7964 80.6474 16.2882 80.8189 16.7604Z" fill="#FA6900"/>
<path d="M69.306 16.7603C69.5063 17.3136 69.8395 17.815 70.2793 18.2249C70.7014 18.6054 71.2117 18.8866 71.7691 19.0458C73.0136 19.3874 74.3346 19.3874 75.5791 19.0458C76.1368 18.8879 76.6478 18.6083 77.0712 18.2293C77.5103 17.8188 77.8433 17.3176 78.0445 16.7647C78.2025 16.333 78.3039 15.8845 78.3466 15.4293L75.4753 15.6001C75.4398 15.9347 75.2871 16.2485 75.0417 16.4911C74.6425 16.7603 74.1649 16.9049 73.6752 16.9049C73.1855 16.9049 72.708 16.7603 72.3088 16.4911C72.1109 16.3056 71.9753 16.0687 71.919 15.8102L69.0869 15.981C69.1375 16.246 69.2108 16.5066 69.306 16.7603Z" fill="#FA6900"/>
<path d="M62.8645 16.3423L60.0071 16.513V19.1007H62.8645V16.3423Z" fill="#FA6900"/>
<path d="M12.643 5.81445C12.7168 5.81445 12.7676 5.8451 12.7653 5.91297V9.87977C12.7657 9.89509 12.7626 9.91032 12.7564 9.92446C12.7502 9.93861 12.7409 9.95136 12.7292 9.96188C12.7174 9.97241 12.7035 9.98048 12.6883 9.98556C12.673 9.99065 12.6568 9.99264 12.6407 9.99141H11.9927V5.81445H12.643Z" fill="#FA6900"/>
<path d="M4.05675 9.43315V6.3683C4.05683 6.31824 4.07292 6.26939 4.10287 6.22819H4.05675C1.6513 6.22162 0 6.97689 0 7.90292C0 8.82894 1.6513 9.58421 4.05675 9.58421H4.10748C4.07472 9.53995 4.05701 9.48724 4.05675 9.43315Z" fill="#FA6900"/>
<path d="M10.6574 6.00278C10.9849 6.00278 11.2132 6.13413 11.2132 6.44061V9.28655C11.216 9.35557 11.2034 9.42438 11.1762 9.48843C11.1489 9.55248 11.1077 9.61032 11.0552 9.65812C11.0026 9.70592 10.94 9.74259 10.8714 9.76571C10.8029 9.78883 10.7299 9.79788 10.6574 9.79225H5.6366C5.3091 9.79225 4.83862 9.73095 4.83862 9.42009V6.35523C4.83862 6.04656 5.29988 5.99402 5.6366 5.99402L10.6574 6.00278Z" fill="#FA6900"/>
<path d="M39.841 18.1877C39.7695 18.1877 39.7187 18.1592 39.7187 18.0892V14.1202C39.718 14.105 39.7207 14.0898 39.7267 14.0756C39.7327 14.0615 39.7417 14.0487 39.7533 14.0382C39.7648 14.0276 39.7786 14.0195 39.7938 14.0144C39.8089 14.0093 39.825 14.0073 39.841 14.0085H40.496V18.1877H39.841Z" fill="#FA6900"/>
<path d="M48.4318 14.569V17.6339C48.4317 17.6839 48.4157 17.7328 48.3857 17.774H48.4318C50.835 17.774 52.4886 17.0209 52.4863 16.0949C52.484 15.1688 50.835 14.4136 48.4318 14.4136H48.3788C48.4137 14.4586 48.4323 14.5131 48.4318 14.569Z" fill="#FA6900"/>
<path d="M41.8266 17.9995C41.4991 17.9995 41.2708 17.8681 41.2708 17.5616V14.7157C41.2683 14.6469 41.2812 14.5783 41.3085 14.5145C41.3359 14.4507 41.3772 14.3932 41.4297 14.3456C41.4822 14.298 41.5447 14.2616 41.6131 14.2386C41.6815 14.2156 41.7543 14.2066 41.8266 14.2122H46.8497C47.1749 14.2122 47.6454 14.2757 47.6454 14.5844V17.6492C47.6454 17.9579 47.1841 18.0104 46.8497 18.0104L41.8266 17.9995Z" fill="#FA6900"/>
<path d="M32.4909 9.74624H38.8885V6.06184H32.4909V0H28.5979V6.06184H23.87V0H19.9862V6.06184H13.6071V9.74624H19.9954V14.256H13.6071V17.9513H19.9954V24.0109H23.87V17.9513H28.5979V24.0109H32.4816V17.9513H38.8793V14.256H32.4909V9.74624ZM23.87 14.256V9.74624H28.5979V14.256H23.87Z" fill="#2C353A"/>
</svg>
