<svg width="28" height="28" viewBox="0 0 28 28" fill="none" xmlns="http://www.w3.org/2000/svg">
<rect width="28" height="28" rx="5" fill="#F8F8F8"/>
<path fill-rule="evenodd" clip-rule="evenodd" d="M7.13721 12.6275C7.13721 8.85301 10.2254 5.76477 14 5.76477C17.7745 5.76477 20.8627 8.85301 20.8627 12.6275C20.8627 17.7059 14.6176 21.9608 14.4117 22.0981C14.2745 22.1667 14.1372 22.2354 14 22.2354C13.8627 22.2354 13.7254 22.1667 13.5882 22.0981C13.3823 21.9608 7.13721 17.7059 7.13721 12.6275ZM8.50977 12.6275C8.50977 16.3334 12.696 19.7648 14 20.7256C15.3039 19.7648 19.4902 16.3334 19.4902 12.6275C19.4902 9.60791 17.0196 7.13732 14 7.13732C10.9804 7.13732 8.50977 9.60791 8.50977 12.6275ZM13.9999 9.88242C12.4901 9.88242 11.2548 11.1177 11.2548 12.6275C11.2548 14.1373 12.4901 15.3726 13.9999 15.3726C15.5098 15.3726 16.745 14.1373 16.745 12.6275C16.745 11.1177 15.5098 9.88242 13.9999 9.88242ZM12.6274 12.6275C12.6274 13.3824 13.2451 14.0001 14 14.0001C14.7549 14.0001 15.3725 13.3824 15.3725 12.6275C15.3725 11.8726 14.7549 11.255 14 11.255C13.2451 11.255 12.6274 11.8726 12.6274 12.6275Z" fill="#2C3941"/>
</svg>
