<svg width="28" height="28" viewBox="0 0 28 28" fill="none" xmlns="http://www.w3.org/2000/svg">
<path fill-rule="evenodd" clip-rule="evenodd" d="M4.1665 9.66663H15.8332C17.2498 9.66663 18.3332 10.75 18.3332 12.1666V20.5C18.3332 21.9166 17.2498 23 15.8332 23H6.1665L3.08317 26.0833C2.9165 26.25 2.74984 26.3333 2.49984 26.3333C2.4165 26.3333 2.24984 26.3333 2.1665 26.25C1.83317 26.1666 1.6665 25.8333 1.6665 25.5V12.1666C1.6665 10.75 2.74984 9.66663 4.1665 9.66663ZM15.8332 21.3333C16.3332 21.3333 16.6665 21 16.6665 20.5V12.1666C16.6665 11.6666 16.3332 11.3333 15.8332 11.3333H4.16649C3.66649 11.3333 3.33316 11.6666 3.33316 12.1666V23.5L5.24982 21.5833C5.41649 21.4166 5.58315 21.3333 5.83315 21.3333H15.8332Z" fill="#6E6B7B"/>
<circle cx="19" cy="9" r="9" fill="#EA5455"/>
<path d="M22.4437 11.092H20.9557V13H19.4437V11.092H14.8357V10.012L18.9757 4.6H20.6437L16.7437 9.772H19.4917V8.08H20.9557V9.772H22.4437V11.092Z" fill="white"/>
</svg>
