<svg width="28" height="28" viewBox="0 0 28 28" fill="none" xmlns="http://www.w3.org/2000/svg">
<path fill-rule="evenodd" clip-rule="evenodd" d="M19.1668 22.1667C19.1668 22.6667 18.8335 23 18.3335 23H1.66683C1.16683 23 0.833496 22.6667 0.833496 22.1667C0.833496 21.6667 1.16683 21.3334 1.66683 21.3334C2.5835 21.3334 3.3335 20.5834 3.3335 19.6667V15.5C3.3335 11.8334 6.3335 8.83337 10.0002 8.83337C13.6668 8.83337 16.6668 11.8334 16.6668 15.5V19.6667C16.6668 20.5834 17.4168 21.3334 18.3335 21.3334C18.8335 21.3334 19.1668 21.6667 19.1668 22.1667ZM12.1668 25.9167C11.6668 26.75 10.8335 27.1667 10.0002 27.1667C9.5835 27.1667 9.16683 27.0834 8.75016 26.8334C8.3335 26.5834 8.0835 26.3334 7.8335 25.9167C7.5835 25.5 7.75016 25 8.16683 24.75C8.5835 24.5 9.0835 24.6667 9.3335 25.0834C9.35873 25.1086 9.38396 25.1415 9.4115 25.1774C9.47493 25.26 9.55062 25.3586 9.66683 25.4167C10.0835 25.6667 10.5835 25.5 10.8335 25.0834C11.0835 24.6667 11.5835 24.5834 12.0002 24.75C12.4168 24.9167 12.4168 25.5 12.1668 25.9167ZM15.0002 19.6667C15.0002 20.25 15.1668 20.8334 15.4168 21.3334H4.5835C4.8335 20.8334 5.00016 20.25 5.00016 19.6667V15.5C5.00016 12.75 7.25016 10.5 10.0002 10.5C12.7502 10.5 15.0002 12.75 15.0002 15.5V19.6667Z" fill="#6E6B7B"/>
<circle cx="19" cy="9" r="9" fill="#EA5455"/>
<path d="M22.4437 11.092H20.9557V13H19.4437V11.092H14.8357V10.012L18.9757 4.6H20.6437L16.7437 9.772H19.4917V8.08H20.9557V9.772H22.4437V11.092Z" fill="white"/>
</svg>
