<svg width="24" height="25" viewBox="0 0 24 25" fill="none" xmlns="http://www.w3.org/2000/svg">
<path fill-rule="evenodd" clip-rule="evenodd" d="M21 5.59863H17V4.59863C17 2.89863 15.7 1.59863 14 1.59863H10C8.3 1.59863 7 2.89863 7 4.59863V5.59863H3C2.4 5.59863 2 5.99863 2 6.59863C2 7.19863 2.4 7.59863 3 7.59863H4V20.5986C4 22.2986 5.3 23.5986 7 23.5986H17C18.7 23.5986 20 22.2986 20 20.5986V7.59863H21C21.6 7.59863 22 7.19863 22 6.59863C22 5.99863 21.6 5.59863 21 5.59863ZM9 4.59863C9 3.99863 9.4 3.59863 10 3.59863H14C14.6 3.59863 15 3.99863 15 4.59863V5.59863H9V4.59863ZM17 21.5986C17.6 21.5986 18 21.1986 18 20.5986V7.59863H6V20.5986C6 21.1986 6.4 21.5986 7 21.5986H17ZM11 11.5986V17.5986C11 18.1986 10.6 18.5986 10 18.5986C9.4 18.5986 9 18.1986 9 17.5986V11.5986C9 10.9986 9.4 10.5986 10 10.5986C10.6 10.5986 11 10.9986 11 11.5986ZM15 17.5986V11.5986C15 10.9986 14.6 10.5986 14 10.5986C13.4 10.5986 13 10.9986 13 11.5986V17.5986C13 18.1986 13.4 18.5986 14 18.5986C14.6 18.5986 15 18.1986 15 17.5986Z" fill="#EA5455"/>
</svg>
