<svg width="60" height="60" viewBox="0 0 60 60" fill="none" xmlns="http://www.w3.org/2000/svg">
<circle opacity="0.2" cx="30" cy="30" r="30" fill="#28C76F"/>
<path fill-rule="evenodd" clip-rule="evenodd" d="M48.3327 30V28.5C48.3327 27.5 47.666 26.8334 46.666 26.8334C45.666 26.8334 44.9993 27.5 44.9993 28.5V30C44.9993 38.3334 38.3327 45 29.9993 45C21.666 45 14.9993 38.3334 14.9993 30C14.9993 21.6667 21.666 15 29.9993 15C32.166 15 34.166 15.5 36.166 16.3334C36.9993 16.6667 37.9993 16.3334 38.3327 15.5C38.666 14.6667 38.3327 13.6667 37.4993 13.3334C35.166 12.1667 32.4993 11.6667 29.9993 11.6667C19.8327 11.6667 11.666 19.8334 11.666 30C11.666 40.1667 19.8327 48.3334 29.9993 48.3334C40.166 48.3334 48.3327 40.1667 48.3327 30ZM47.166 13.8334C47.8327 13.1667 48.8327 13.1667 49.4993 13.8334C50.166 14.5 50.166 15.5 49.4993 16.1667L31.166 34.5C30.8327 34.8334 30.3327 35 29.9993 35C29.666 35 29.166 34.8334 28.8327 34.5L23.8327 29.5C23.166 28.8334 23.166 27.8334 23.8327 27.1667C24.4993 26.5 25.4993 26.5 26.166 27.1667L29.9993 31L47.166 13.8334Z" fill="#28C76F"/>
</svg>
