<svg width="18" height="18" viewBox="0 0 18 18" fill="none" xmlns="http://www.w3.org/2000/svg">
<path fill-rule="evenodd" clip-rule="evenodd" d="M1.50002 16.2C1.87502 16.425 2.25002 16.5 2.62502 16.5H15.375C15.975 16.5 16.5 16.275 16.875 15.825C17.325 15.45 17.55 14.85 17.55 14.25C17.55 13.875 17.475 13.5 17.25 13.125L10.95 2.55005C10.575 2.02505 10.125 1.65005 9.52502 1.50005C8.92502 1.35005 8.32502 1.42505 7.80002 1.72505C7.50002 1.87505 7.20002 2.17505 7.05002 2.47505L0.675021 13.125C0.0750208 14.175 0.450021 15.6 1.50002 16.2ZM2.02502 13.8751L8.32502 3.30005C8.40002 3.15005 8.47502 3.07505 8.62502 3.00005C9.00002 2.85005 9.45002 2.92505 9.67502 3.30005L15.975 13.8751C16.05 14.0251 16.05 14.1001 16.05 14.2501C16.05 14.4751 15.975 14.6251 15.825 14.7751C15.675 14.9251 15.525 15.0001 15.3 15.0001H2.62502C2.55002 15.0001 2.40002 15.0001 2.32502 14.9251C1.95002 14.7001 1.80002 14.2501 2.02502 13.8751ZM9.75002 9.75005V6.75005C9.75002 6.30005 9.45002 6.00005 9.00002 6.00005C8.55002 6.00005 8.25002 6.30005 8.25002 6.75005V9.75005C8.25002 10.2 8.55002 10.5 9.00002 10.5C9.45002 10.5 9.75002 10.2 9.75002 9.75005ZM9.75002 12.75C9.75002 12.975 9.67502 13.125 9.52502 13.275C9.37502 13.425 9.22502 13.5 8.92502 13.5C8.70002 13.5 8.55002 13.425 8.40002 13.275C8.25002 13.125 8.17502 12.975 8.17502 12.75C8.17502 12.6622 8.20076 12.6 8.22208 12.5486C8.23716 12.5122 8.25002 12.4811 8.25002 12.45C8.25002 12.3751 8.32502 12.3001 8.40002 12.2251L8.40002 12.225C8.47503 12.15 8.55002 12.075 8.62502 12.075C8.77502 12 8.92502 12 9.07502 12C9.11815 12.0432 9.13648 12.0615 9.15853 12.0693C9.17483 12.075 9.19315 12.075 9.22502 12.075C9.26252 12.075 9.28127 12.0938 9.30002 12.1125C9.31877 12.1313 9.33752 12.15 9.37502 12.15C9.45002 12.15 9.52502 12.225 9.52502 12.225C9.60002 12.3 9.67502 12.375 9.67502 12.45C9.75002 12.525 9.75002 12.675 9.75002 12.75Z" fill="#6E6B7B"/>
</svg>
