<svg width="20" height="20" viewBox="0 0 20 20" fill="none" xmlns="http://www.w3.org/2000/svg">
<path d="M17.5 3.33333V5.83333C17.5 6.33333 17.1667 6.66667 16.6667 6.66667C16.1667 6.66667 15.8333 6.33333 15.8333 5.83333V4.16667H10.8333V15.8333H12.5C13 15.8333 13.3333 16.1667 13.3333 16.6667C13.3333 17.1667 13 17.5 12.5 17.5H7.5C7 17.5 6.66667 17.1667 6.66667 16.6667C6.66667 16.1667 7 15.8333 7.5 15.8333H9.16667V4.16667H4.16667V5.83333C4.16667 6.33333 3.83333 6.66667 3.33333 6.66667C2.83333 6.66667 2.5 6.33333 2.5 5.83333V3.33333C2.5 2.83333 2.83333 2.5 3.33333 2.5H16.6667C17.1667 2.5 17.5 2.83333 17.5 3.33333Z" fill="#6E6B7B"/>
</svg>
